<?xml version="1.0" standalone="no"?><svg xmlns="http://www.w3.org/2000/svg" viewBox="0 0 1440 320"><path fill="#fcfcfc" fill-opacity="1" d="M0,192L18.5,197.3C36.9,203,74,213,111,181.3C147.7,149,185,75,222,58.7C258.5,43,295,85,332,90.7C369.2,96,406,64,443,69.3C480,75,517,117,554,138.7C590.8,160,628,160,665,138.7C701.5,117,738,75,775,64C812.3,53,849,75,886,112C923.1,149,960,203,997,213.3C1033.8,224,1071,192,1108,154.7C1144.6,117,1182,75,1218,53.3C1255.4,32,1292,32,1329,53.3C1366.2,75,1403,117,1422,138.7L1440,160L1440,320L1421.5,320C1403.1,320,1366,320,1329,320C1292.3,320,1255,320,1218,320C1181.5,320,1145,320,1108,320C1070.8,320,1034,320,997,320C960,320,923,320,886,320C849.2,320,812,320,775,320C738.5,320,702,320,665,320C627.7,320,591,320,554,320C516.9,320,480,320,443,320C406.2,320,369,320,332,320C295.4,320,258,320,222,320C184.6,320,148,320,111,320C73.8,320,37,320,18,320L0,320Z"></path></svg>